<svg width="48" height="48" viewBox="0 0 48 48" fill="none" xmlns="http://www.w3.org/2000/svg">
<path d="M29.9206 10.7992C29.3349 10.2134 28.3851 10.2134 27.7993 10.7992C27.2135 11.385 27.2135 12.3347 27.7993 12.9205L37.3788 22.5H7C6.17157 22.5 5.5 23.1716 5.5 24C5.5 24.8284 6.17157 25.5 7 25.5H37.3785L27.7993 35.0792C27.2135 35.665 27.2135 36.6147 27.7993 37.2005C28.3851 37.7863 29.3349 37.7863 29.9206 37.2005L42.0606 25.0605C42.3419 24.7792 42.5 24.3977 42.5 23.9999C42.5 23.602 42.3419 23.2205 42.0606 22.9392L29.9206 10.7992Z" fill="#333333"/>
</svg>
