<svg width="48" height="48" viewBox="0 0 48 48" fill="none" xmlns="http://www.w3.org/2000/svg">
<path d="M20.2007 12.9205C20.7864 12.3347 20.7864 11.385 20.2007 10.7992C19.6149 10.2134 18.6651 10.2134 18.0793 10.7992L5.93934 22.9392C5.65804 23.2205 5.5 23.602 5.5 23.9999C5.5 24.3977 5.65804 24.7792 5.93934 25.0605L18.0793 37.2005C18.6651 37.7863 19.6149 37.7863 20.2007 37.2005C20.7864 36.6147 20.7864 35.665 20.2007 35.0792L10.6215 25.5H41C41.8284 25.5 42.5 24.8284 42.5 24C42.5 23.1716 41.8284 22.5 41 22.5H10.6212L20.2007 12.9205Z" fill="#333333"/>
</svg>
