<svg width="48" height="48" viewBox="0 0 48 48" fill="none" xmlns="http://www.w3.org/2000/svg">
<path d="M28.991 24C28.991 22.8954 29.8864 22 30.991 22H31.0089C32.1135 22 33.0089 22.8954 33.0089 24C33.0089 25.1045 32.1135 26 31.0089 26H30.991C29.8864 26 28.991 25.1045 28.991 24Z" fill="#333333"/>
<path d="M16.989 22C15.8845 22 14.989 22.8954 14.989 24C14.989 25.1045 15.8845 26 16.989 26H17.007C18.1116 26 19.007 25.1045 19.007 24C19.007 22.8954 18.1116 22 17.007 22H16.989Z" fill="#333333"/>
<path fill-rule="evenodd" clip-rule="evenodd" d="M13.5 14.6239V13.4C13.5 8.21597 17.6221 3.06821 22.9779 2.56673C29.2305 1.96171 34.5 6.88758 34.5 13.02V14.6239C37.6102 14.9547 39.8365 15.9502 41.2531 17.6344C43.0096 19.7228 43.1741 22.4674 42.8911 25.0249L42.8886 25.046L41.3902 37.0333C41.169 39.0858 40.6512 41.3339 38.8194 43.0074C36.9971 44.6722 34.1739 45.5 30.0002 45.5H18.0002C13.8265 45.5 11.0032 44.6722 9.18093 43.0074C7.34903 41.3338 6.83124 39.0857 6.61013 37.0331L5.11174 25.046L5.10925 25.0249C4.82625 22.4674 4.99069 19.7228 6.74723 17.6344C8.16381 15.9503 10.39 14.9548 13.5 14.6239ZM23.2649 5.55297C27.7311 5.11968 31.5 8.63327 31.5 13.02V14.5H16.5V13.4C16.5 9.58487 19.6165 5.89349 23.2594 5.55349L23.2649 5.55297ZM9.58857 36.6739L8.08991 24.6846C7.83485 22.3675 8.10102 20.6855 9.04308 19.5655C9.97226 18.4608 11.9062 17.5 16.0002 17.5H32.0002C36.0941 17.5 38.0281 18.4608 38.9572 19.5655C39.8993 20.6855 40.1654 22.3674 39.9104 24.6844L38.4117 36.6739L38.4087 36.7002C38.209 38.564 37.7951 39.8797 36.7959 40.7925C35.7832 41.7177 33.8665 42.5 30.0002 42.5H18.0002C14.1339 42.5 12.2171 41.7177 11.2044 40.7925C10.2053 39.8797 9.79132 38.564 9.59162 36.7002L9.58857 36.6739Z" fill="#333333"/>
</svg>
