<svg width="48" height="48" viewBox="0 0 48 48" fill="none" xmlns="http://www.w3.org/2000/svg">
<path fill-rule="evenodd" clip-rule="evenodd" d="M24.0001 2.5C18.2495 2.5 13.6201 7.15378 13.6201 12.88C13.6201 18.4867 18.0393 23.0519 23.6097 23.2392C23.6718 23.2412 23.734 23.2395 23.7959 23.2338C23.9303 23.2216 24.0744 23.2229 24.1709 23.2326C24.2372 23.2392 24.3039 23.2414 24.3705 23.2392C29.942 23.0519 34.3568 18.487 34.3801 12.8863L34.3801 12.88C34.3801 7.15157 29.7285 2.5 24.0001 2.5ZM16.6201 12.88C16.6201 8.80623 19.9107 5.5 24.0001 5.5C28.0707 5.5 31.3785 8.80677 31.3801 12.8769C31.3619 16.8462 28.2619 20.062 24.3541 20.2375C24.1177 20.2204 23.8671 20.2212 23.6299 20.2377C19.7183 20.064 16.6201 16.846 16.6201 12.88Z" fill="#333333"/>
<path fill-rule="evenodd" clip-rule="evenodd" d="M35.173 27.8726C32.1339 25.8428 28.2013 24.875 24.3449 24.875C20.4881 24.875 16.5479 25.843 13.491 27.8698L13.4855 27.8735C10.7548 29.7015 9.18994 32.2549 9.18994 34.9975C9.18994 37.7406 10.7554 40.2896 13.4876 42.1079C16.5358 44.1467 20.4725 45.12 24.3299 45.12C28.1881 45.12 32.1257 44.1464 35.1741 42.1067C37.9048 40.2787 39.4699 37.7251 39.4699 34.9825C39.4699 32.2397 37.9048 29.6909 35.173 27.8726ZM12.1899 34.9975C12.1899 33.4858 13.0443 31.78 15.1516 30.3683C17.6145 28.7364 20.9431 27.875 24.3449 27.875C27.7485 27.875 31.066 28.7372 33.5068 30.3674L33.5091 30.3689C35.6159 31.7705 36.4699 33.4711 36.4699 34.9825C36.4699 36.4949 35.6148 38.2015 33.5055 39.6135C31.054 41.2537 27.7316 42.12 24.3299 42.12C20.9281 42.12 17.6057 41.2536 15.1541 39.6133L15.1508 39.6111C13.044 38.2095 12.1899 36.5089 12.1899 34.9975Z" fill="#333333"/>
</svg>
